<svg xmlns="http://www.w3.org/2000/svg" version="1.1" xmlns:xlink="http://www.w3.org/1999/xlink" xmlns:svgjs="http://svgjs.dev/svgjs" width="1000" height="1000" viewBox="0 0 1000 1000"><rect width="1000" height="1000" fill="#000000"></rect><g transform="matrix(0.7,0,0,0.7,150,281.25)"><svg viewBox="0 0 512 320" data-background-color="#ffffff" preserveAspectRatio="xMidYMid meet" height="625" width="1000" xmlns="http://www.w3.org/2000/svg" xmlns:xlink="http://www.w3.org/1999/xlink"><g id="tight-bounds" transform="matrix(1,0,0,1,0,0)"><svg viewBox="0 0 512 320" height="320" width="512"><g><svg></svg></g><g><svg viewBox="0 0 512 320" height="320" width="512"><g><path xmlns="http://www.w3.org/2000/svg" d="M96 160c0-88.366 71.634-160 160-160 88.366 0 160 71.634 160 160 0 88.366-71.634 160-160 160-88.366 0-160-71.634-160-160z" fill="#ffffff" fill-rule="nonzero" stroke="none" stroke-width="1" stroke-linecap="butt" stroke-linejoin="miter" stroke-miterlimit="10" stroke-dasharray="" stroke-dashoffset="0" font-family="none" font-weight="none" font-size="none" text-anchor="none" style="mix-blend-mode: normal" data-fill-palette-color="tertiary"></path></g><g transform="matrix(1,0,0,1,158.25130193905818,80)"><svg viewBox="0 0 195.49739612188364 160" height="160" width="195.49739612188364"><g><svg viewBox="0 0 195.49739612188364 160" height="160" width="195.49739612188364"><g><svg viewBox="0 0 195.49739612188364 160" height="160" width="195.49739612188364"><g id="textblocktransform"><svg viewBox="0 0 195.49739612188364 160" height="160" width="195.49739612188364" id="textblock"><g><svg viewBox="0 0 195.49739612188364 160" height="160" width="195.49739612188364"><rect width="195.49739612188364" height="160" x="0" y="0" opacity="1" fill="#ffffff" data-fill-palette-color="tertiary"></rect><g transform="matrix(1,0,0,1,15.280000000000001,15.280000000000001)"><svg width="164.93739612188364" viewBox="1.149999976158142 -35.5 46 36.099998474121094" height="129.44" data-palette-color="#ffffff"><path d="M4.5-34.9L19.2-34.9 19.2-8Q19.2-6 18.55-4.42 17.9-2.85 16.7-1.73 15.5-0.6 13.83 0 12.15 0.6 10.15 0.6L10.15 0.6Q6.15 0.6 3.98-1.53 1.8-3.65 1.15-7.1L1.15-7.1 4.75-8Q5.2-5.75 6.4-4.35 7.6-2.95 10.15-2.95L10.15-2.95Q12.55-2.95 13.88-4.38 15.2-5.8 15.2-8.75L15.2-8.75 15.2-31.4 4.5-31.4 4.5-34.9ZM36.15 0.6L36.15 0.6Q32.4 0.6 29.6-0.98 26.8-2.55 24.95-5.35L24.95-5.35 27.85-7.75Q29.45-5.4 31.45-4.13 33.45-2.85 36.15-2.85L36.15-2.85Q43.25-2.85 43.25-9.5L43.25-9.5Q43.25-12.2 41.95-13.6 40.65-15 37.45-15.8L37.45-15.8 34.85-16.45Q30.25-17.6 28.07-19.83 25.9-22.05 25.9-26.1L25.9-26.1Q25.9-30.75 28.8-33.13 31.7-35.5 36.5-35.5L36.5-35.5Q40.15-35.5 42.62-34.15 45.1-32.8 46.95-29.9L46.95-29.9 44-27.8Q42.65-29.9 40.92-30.98 39.2-32.05 36.35-32.05L36.35-32.05Q33.15-32.05 31.47-30.65 29.8-29.25 29.8-26.1L29.8-26.1Q29.8-23.55 31.17-22.25 32.55-20.95 35.6-20.2L35.6-20.2 38.2-19.55Q40.65-18.95 42.35-18.13 44.05-17.3 45.12-16.1 46.2-14.9 46.67-13.28 47.15-11.65 47.15-9.5L47.15-9.5Q47.15-4.55 44.22-1.98 41.3 0.6 36.15 0.6Z" opacity="1" transform="matrix(1,0,0,1,0,0)" fill="#000000" class="undefined-text-0" data-fill-palette-color="quaternary" id="text-0"></path></svg></g></svg></g></svg></g></svg></g></svg></g></svg></g></svg></g><defs></defs></svg><rect width="512" height="320" fill="none" stroke="none" visibility="hidden"></rect></g></svg></g></svg>